<mxfile host="app.diagrams.net" modified="2023-11-12T19:19:20.855Z" agent="Mozilla/5.0 (Windows NT 10.0; Win64; x64) AppleWebKit/537.36 (KHTML, like Gecko) Chrome/119.0.0.0 Safari/537.36" etag="VMSpm-o14rzbErqv1QAt" version="22.0.0" type="google">
  <diagram name="Page-1" id="vXHoYdIYLKtlrsSzHpwH">
    <mxGraphModel grid="0" page="0" gridSize="10" guides="1" tooltips="1" connect="1" arrows="1" fold="1" pageScale="1" pageWidth="850" pageHeight="1100" math="0" shadow="1">
      <root>
        <mxCell id="0" />
        <mxCell id="1" parent="0" />
        <mxCell id="lX6PHqwGhS0pLgjCv0tl-141" value="" style="rounded=0;whiteSpace=wrap;html=1;" vertex="1" parent="1">
          <mxGeometry x="395" y="695" width="230" height="320" as="geometry" />
        </mxCell>
        <mxCell id="lX6PHqwGhS0pLgjCv0tl-136" value="" style="rounded=0;whiteSpace=wrap;html=1;" vertex="1" parent="1">
          <mxGeometry x="81" y="50" width="259" height="295" as="geometry" />
        </mxCell>
        <mxCell id="lX6PHqwGhS0pLgjCv0tl-99" value="" style="rounded=0;whiteSpace=wrap;html=1;" vertex="1" parent="1">
          <mxGeometry x="820" y="1870" width="65" height="30" as="geometry" />
        </mxCell>
        <mxCell id="tG2HjBdpa46FLRJhWVVo-32" value="" style="rounded=0;whiteSpace=wrap;html=1;" vertex="1" parent="1">
          <mxGeometry x="81" y="802" width="260" height="276" as="geometry" />
        </mxCell>
        <mxCell id="lX6PHqwGhS0pLgjCv0tl-1" value="" style="rounded=0;whiteSpace=wrap;html=1;" vertex="1" parent="1">
          <mxGeometry x="77" y="1500" width="261" height="279" as="geometry" />
        </mxCell>
        <mxCell id="lX6PHqwGhS0pLgjCv0tl-137" value="" style="rounded=0;whiteSpace=wrap;html=1;fillColor=none;" vertex="1" parent="1">
          <mxGeometry x="101" y="1190" width="120" height="60" as="geometry" />
        </mxCell>
        <mxCell id="JKxnxF4VFKg8o7jbgC08-7" value="" style="triangle;whiteSpace=wrap;html=1;" vertex="1" parent="1">
          <mxGeometry x="1" y="138.5" width="79" height="113" as="geometry" />
        </mxCell>
        <mxCell id="tG2HjBdpa46FLRJhWVVo-46" value="" style="rounded=0;whiteSpace=wrap;html=1;" vertex="1" parent="1">
          <mxGeometry x="660" y="150" width="170" height="190" as="geometry" />
        </mxCell>
        <mxCell id="LqZAFhonkJ6JjxYrdcSj-6" value="/index [page]" style="text;html=1;strokeColor=none;fillColor=none;align=center;verticalAlign=middle;whiteSpace=wrap;rounded=0;" vertex="1" parent="1">
          <mxGeometry x="80" y="30" width="80" height="10" as="geometry" />
        </mxCell>
        <mxCell id="LqZAFhonkJ6JjxYrdcSj-7" value="&amp;nbsp;/home [page]" style="text;html=1;strokeColor=none;fillColor=none;align=center;verticalAlign=middle;whiteSpace=wrap;rounded=0;" vertex="1" parent="1">
          <mxGeometry x="85" y="370" width="85" height="10" as="geometry" />
        </mxCell>
        <mxCell id="eyCGUmQNgfzPm_etx0tx-2" value="LABEL&lt;br&gt;(LOGO)" style="text;html=1;strokeColor=none;fillColor=none;align=center;verticalAlign=middle;whiteSpace=wrap;rounded=0;" vertex="1" parent="1">
          <mxGeometry x="180" y="130" width="60" height="30" as="geometry" />
        </mxCell>
        <mxCell id="eyCGUmQNgfzPm_etx0tx-4" value="" style="whiteSpace=wrap;html=1;aspect=fixed;" vertex="1" parent="1">
          <mxGeometry x="470" y="200" width="80" height="80" as="geometry" />
        </mxCell>
        <mxCell id="eyCGUmQNgfzPm_etx0tx-5" value="Google&lt;br&gt;Authorization&lt;br&gt;[Firebase]" style="text;html=1;strokeColor=none;fillColor=none;align=center;verticalAlign=middle;whiteSpace=wrap;rounded=0;" vertex="1" parent="1">
          <mxGeometry x="480" y="221.25" width="60" height="30" as="geometry" />
        </mxCell>
        <mxCell id="eyCGUmQNgfzPm_etx0tx-7" value="" style="endArrow=classic;html=1;rounded=0;entryX=0;entryY=0.5;entryDx=0;entryDy=0;exitX=1;exitY=0.563;exitDx=0;exitDy=0;exitPerimeter=0;" edge="1" parent="1" source="eyCGUmQNgfzPm_etx0tx-4" target="tG2HjBdpa46FLRJhWVVo-46">
          <mxGeometry width="50" height="50" relative="1" as="geometry">
            <mxPoint x="330" y="230" as="sourcePoint" />
            <mxPoint x="660" y="240" as="targetPoint" />
          </mxGeometry>
        </mxCell>
        <mxCell id="eyCGUmQNgfzPm_etx0tx-9" value="" style="endArrow=classic;html=1;rounded=0;entryX=-0.021;entryY=0.6;entryDx=0;entryDy=0;exitX=1;exitY=0.5;exitDx=0;exitDy=0;entryPerimeter=0;" edge="1" parent="1" target="eyCGUmQNgfzPm_etx0tx-4">
          <mxGeometry width="50" height="50" relative="1" as="geometry">
            <mxPoint x="240" y="247.5" as="sourcePoint" />
            <mxPoint x="310" y="120" as="targetPoint" />
            <Array as="points">
              <mxPoint x="400" y="248" />
            </Array>
          </mxGeometry>
        </mxCell>
        <mxCell id="eyCGUmQNgfzPm_etx0tx-11" value="New User?" style="text;html=1;strokeColor=none;fillColor=none;align=center;verticalAlign=middle;whiteSpace=wrap;rounded=0;" vertex="1" parent="1">
          <mxGeometry x="580" y="210" width="45" height="30" as="geometry" />
        </mxCell>
        <mxCell id="eyCGUmQNgfzPm_etx0tx-12" value="Returning User?" style="text;html=1;strokeColor=none;fillColor=none;align=center;verticalAlign=middle;whiteSpace=wrap;rounded=0;" vertex="1" parent="1">
          <mxGeometry x="450" y="300" width="60" height="30" as="geometry" />
        </mxCell>
        <mxCell id="eyCGUmQNgfzPm_etx0tx-14" value="New User Modal" style="text;html=1;strokeColor=none;fillColor=none;align=center;verticalAlign=middle;whiteSpace=wrap;rounded=0;" vertex="1" parent="1">
          <mxGeometry x="660" y="120" width="100" height="30" as="geometry" />
        </mxCell>
        <mxCell id="eyCGUmQNgfzPm_etx0tx-23" value="" style="html=1;shadow=0;dashed=0;shape=mxgraph.bootstrap.rrect;rSize=5;fillColor=#ffffff;strokeColor=none;gradientColor=none;" vertex="1" parent="1">
          <mxGeometry x="410" y="400" width="170" height="190" as="geometry" />
        </mxCell>
        <mxCell id="eyCGUmQNgfzPm_etx0tx-24" value="Home" style="fillColor=none;strokeColor=default;align=left;spacing=20;fontSize=14;" vertex="1" parent="eyCGUmQNgfzPm_etx0tx-23">
          <mxGeometry width="170" height="30" relative="1" as="geometry">
            <mxPoint as="offset" />
          </mxGeometry>
        </mxCell>
        <mxCell id="eyCGUmQNgfzPm_etx0tx-25" value="Community" style="fillColor=none;strokeColor=default;align=left;spacing=20;fontSize=14;" vertex="1" parent="eyCGUmQNgfzPm_etx0tx-23">
          <mxGeometry width="170" height="30" relative="1" as="geometry">
            <mxPoint y="30" as="offset" />
          </mxGeometry>
        </mxCell>
        <mxCell id="eyCGUmQNgfzPm_etx0tx-26" value="History" style="fillColor=none;strokeColor=default;align=left;spacing=20;fontSize=14;" vertex="1" parent="eyCGUmQNgfzPm_etx0tx-23">
          <mxGeometry width="170" height="30" relative="1" as="geometry">
            <mxPoint y="60" as="offset" />
          </mxGeometry>
        </mxCell>
        <mxCell id="tG2HjBdpa46FLRJhWVVo-26" value="Resources" style="fillColor=none;strokeColor=default;align=left;spacing=20;fontSize=14;" vertex="1" parent="eyCGUmQNgfzPm_etx0tx-23">
          <mxGeometry y="90.00270270270269" width="170" height="30.810810810810807" as="geometry" />
        </mxCell>
        <mxCell id="tG2HjBdpa46FLRJhWVVo-27" value="Setting/Admin" style="fillColor=none;strokeColor=default;align=left;spacing=20;fontSize=14;" vertex="1" parent="eyCGUmQNgfzPm_etx0tx-23">
          <mxGeometry y="120.81351351351351" width="170" height="30.810810810810807" as="geometry" />
        </mxCell>
        <mxCell id="tG2HjBdpa46FLRJhWVVo-28" value="Log Out" style="fillColor=none;strokeColor=default;align=left;spacing=20;fontSize=14;" vertex="1" parent="eyCGUmQNgfzPm_etx0tx-23">
          <mxGeometry y="151.62" width="170" height="30" as="geometry" />
        </mxCell>
        <mxCell id="eyCGUmQNgfzPm_etx0tx-35" value="Navigation Drop-down" style="text;html=1;strokeColor=none;fillColor=none;align=center;verticalAlign=middle;whiteSpace=wrap;rounded=0;" vertex="1" parent="1">
          <mxGeometry x="410" y="370" width="140" height="30" as="geometry" />
        </mxCell>
        <mxCell id="tG2HjBdpa46FLRJhWVVo-4" value="" style="rounded=0;whiteSpace=wrap;html=1;fillColor=default;" vertex="1" parent="1">
          <mxGeometry x="80" y="390" width="260" height="370" as="geometry" />
        </mxCell>
        <mxCell id="tG2HjBdpa46FLRJhWVVo-7" value="" style="rounded=0;whiteSpace=wrap;html=1;" vertex="1" parent="1">
          <mxGeometry x="80" y="390" width="260" height="40" as="geometry" />
        </mxCell>
        <mxCell id="tG2HjBdpa46FLRJhWVVo-8" value="" style="shape=actor;whiteSpace=wrap;html=1;" vertex="1" parent="1">
          <mxGeometry x="85" y="395" width="25" height="30" as="geometry" />
        </mxCell>
        <mxCell id="tG2HjBdpa46FLRJhWVVo-9" value="username" style="text;html=1;strokeColor=none;fillColor=none;align=center;verticalAlign=middle;whiteSpace=wrap;rounded=0;" vertex="1" parent="1">
          <mxGeometry x="120" y="400" width="60" height="30" as="geometry" />
        </mxCell>
        <mxCell id="tG2HjBdpa46FLRJhWVVo-10" value="Nav Menu" style="rounded=0;whiteSpace=wrap;html=1;" vertex="1" parent="1">
          <mxGeometry x="252.5" y="395" width="80" height="30" as="geometry" />
        </mxCell>
        <mxCell id="tG2HjBdpa46FLRJhWVVo-12" value="" style="ellipse;shape=cloud;whiteSpace=wrap;html=1;" vertex="1" parent="1">
          <mxGeometry x="150" y="450" width="120" height="80" as="geometry" />
        </mxCell>
        <mxCell id="tG2HjBdpa46FLRJhWVVo-13" value="word cloud component" style="text;html=1;strokeColor=none;fillColor=none;align=center;verticalAlign=middle;whiteSpace=wrap;rounded=0;" vertex="1" parent="1">
          <mxGeometry x="180" y="475" width="60" height="30" as="geometry" />
        </mxCell>
        <mxCell id="tG2HjBdpa46FLRJhWVVo-14" value="" style="rounded=0;whiteSpace=wrap;html=1;" vertex="1" parent="1">
          <mxGeometry x="167.5" y="540" width="82.5" height="30" as="geometry" />
        </mxCell>
        <mxCell id="tG2HjBdpa46FLRJhWVVo-15" value="create article button" style="text;html=1;strokeColor=none;fillColor=none;align=center;verticalAlign=middle;whiteSpace=wrap;rounded=0;" vertex="1" parent="1">
          <mxGeometry x="167.5" y="540" width="80" height="30" as="geometry" />
        </mxCell>
        <mxCell id="tG2HjBdpa46FLRJhWVVo-29" value="" style="endArrow=classic;html=1;rounded=0;entryX=0;entryY=0.333;entryDx=0;entryDy=0;exitX=1;exitY=0.5;exitDx=0;exitDy=0;entryPerimeter=0;" edge="1" parent="1" source="tG2HjBdpa46FLRJhWVVo-10" target="eyCGUmQNgfzPm_etx0tx-24">
          <mxGeometry width="50" height="50" relative="1" as="geometry">
            <mxPoint x="400" y="450" as="sourcePoint" />
            <mxPoint x="450" y="400" as="targetPoint" />
            <Array as="points">
              <mxPoint x="390" y="410" />
            </Array>
          </mxGeometry>
        </mxCell>
        <mxCell id="tG2HjBdpa46FLRJhWVVo-33" value="journal entry creation [modal]" style="text;html=1;strokeColor=none;fillColor=none;align=center;verticalAlign=middle;whiteSpace=wrap;rounded=0;" vertex="1" parent="1">
          <mxGeometry x="85" y="1470" width="130" height="30" as="geometry" />
        </mxCell>
        <mxCell id="tG2HjBdpa46FLRJhWVVo-38" value="" style="endArrow=classic;html=1;rounded=0;entryX=0.442;entryY=-0.086;entryDx=0;entryDy=0;entryPerimeter=0;" edge="1" parent="1" target="tG2HjBdpa46FLRJhWVVo-7">
          <mxGeometry width="50" height="50" relative="1" as="geometry">
            <mxPoint x="510" y="280" as="sourcePoint" />
            <mxPoint x="560" y="230" as="targetPoint" />
            <Array as="points">
              <mxPoint x="510" y="360" />
              <mxPoint x="195" y="360" />
            </Array>
          </mxGeometry>
        </mxCell>
        <mxCell id="tG2HjBdpa46FLRJhWVVo-41" value="" style="group" connectable="0" vertex="1" parent="1">
          <mxGeometry x="780" y="150" width="60" height="30" as="geometry" />
        </mxCell>
        <mxCell id="tG2HjBdpa46FLRJhWVVo-39" value="" style="rounded=0;whiteSpace=wrap;html=1;movable=0;resizable=0;rotatable=0;deletable=0;editable=0;locked=1;connectable=0;" vertex="1" parent="tG2HjBdpa46FLRJhWVVo-41">
          <mxGeometry x="20" y="5.6299999999999955" width="20" height="16.25" as="geometry" />
        </mxCell>
        <mxCell id="tG2HjBdpa46FLRJhWVVo-40" value="X" style="text;html=1;strokeColor=none;fillColor=none;align=center;verticalAlign=middle;whiteSpace=wrap;rounded=0;movable=1;resizable=1;rotatable=1;deletable=1;editable=1;locked=0;connectable=1;" vertex="1" parent="tG2HjBdpa46FLRJhWVVo-41">
          <mxGeometry width="60" height="30" as="geometry" />
        </mxCell>
        <mxCell id="tG2HjBdpa46FLRJhWVVo-43" value="" style="group" connectable="0" vertex="1" parent="1">
          <mxGeometry x="289.9999999999998" y="1500" width="60" height="30" as="geometry" />
        </mxCell>
        <mxCell id="tG2HjBdpa46FLRJhWVVo-44" value="" style="rounded=0;whiteSpace=wrap;html=1;movable=0;resizable=0;rotatable=0;deletable=0;editable=0;locked=1;connectable=0;" vertex="1" parent="tG2HjBdpa46FLRJhWVVo-43">
          <mxGeometry x="20" y="5.6299999999999955" width="20" height="16.25" as="geometry" />
        </mxCell>
        <mxCell id="tG2HjBdpa46FLRJhWVVo-45" value="X" style="text;html=1;strokeColor=none;fillColor=none;align=center;verticalAlign=middle;whiteSpace=wrap;rounded=0;movable=1;resizable=1;rotatable=1;deletable=1;editable=1;locked=0;connectable=1;" vertex="1" parent="tG2HjBdpa46FLRJhWVVo-43">
          <mxGeometry width="60" height="30" as="geometry" />
        </mxCell>
        <mxCell id="tG2HjBdpa46FLRJhWVVo-47" value="" style="endArrow=classic;html=1;rounded=0;exitX=1;exitY=0.25;exitDx=0;exitDy=0;" edge="1" parent="1" source="eyCGUmQNgfzPm_etx0tx-24">
          <mxGeometry width="50" height="50" relative="1" as="geometry">
            <mxPoint x="580" y="420" as="sourcePoint" />
            <mxPoint x="600" y="360" as="targetPoint" />
            <Array as="points">
              <mxPoint x="600" y="408" />
            </Array>
          </mxGeometry>
        </mxCell>
        <mxCell id="tG2HjBdpa46FLRJhWVVo-48" value="" style="endArrow=classic;html=1;rounded=0;" edge="1" parent="1">
          <mxGeometry width="50" height="50" relative="1" as="geometry">
            <mxPoint x="740" y="340" as="sourcePoint" />
            <mxPoint x="360" y="360" as="targetPoint" />
            <Array as="points">
              <mxPoint x="740" y="360" />
            </Array>
          </mxGeometry>
        </mxCell>
        <mxCell id="tG2HjBdpa46FLRJhWVVo-49" value="Prompt Label" style="text;html=1;strokeColor=none;fillColor=none;align=center;verticalAlign=middle;whiteSpace=wrap;rounded=0;" vertex="1" parent="1">
          <mxGeometry x="707.5" y="180" width="75" height="30" as="geometry" />
        </mxCell>
        <mxCell id="tG2HjBdpa46FLRJhWVVo-50" value="" style="rounded=0;whiteSpace=wrap;html=1;" vertex="1" parent="1">
          <mxGeometry x="717.5" y="290" width="55" height="20" as="geometry" />
        </mxCell>
        <mxCell id="tG2HjBdpa46FLRJhWVVo-51" value="Submit" style="text;html=1;strokeColor=none;fillColor=none;align=center;verticalAlign=middle;whiteSpace=wrap;rounded=0;" vertex="1" parent="1">
          <mxGeometry x="712.5" y="285" width="60" height="30" as="geometry" />
        </mxCell>
        <mxCell id="tG2HjBdpa46FLRJhWVVo-52" value="" style="rounded=0;whiteSpace=wrap;html=1;" vertex="1" parent="1">
          <mxGeometry x="685" y="210" width="120" height="20" as="geometry" />
        </mxCell>
        <mxCell id="tG2HjBdpa46FLRJhWVVo-54" value="" style="rounded=0;whiteSpace=wrap;html=1;" vertex="1" parent="1">
          <mxGeometry x="727.5" y="240" width="35" height="30" as="geometry" />
        </mxCell>
        <mxCell id="tG2HjBdpa46FLRJhWVVo-55" value="Username input" style="text;html=1;strokeColor=none;fillColor=none;align=center;verticalAlign=middle;whiteSpace=wrap;rounded=0;" vertex="1" parent="1">
          <mxGeometry x="680" y="205" width="120" height="30" as="geometry" />
        </mxCell>
        <mxCell id="tG2HjBdpa46FLRJhWVVo-56" value="" style="shape=actor;whiteSpace=wrap;html=1;" vertex="1" parent="1">
          <mxGeometry x="732.5" y="240" width="25" height="30" as="geometry" />
        </mxCell>
        <mxCell id="tG2HjBdpa46FLRJhWVVo-57" value="" style="rounded=0;whiteSpace=wrap;html=1;" vertex="1" parent="1">
          <mxGeometry x="727.5" y="440" width="260" height="370" as="geometry" />
        </mxCell>
        <mxCell id="tG2HjBdpa46FLRJhWVVo-58" value="" style="rounded=0;whiteSpace=wrap;html=1;" vertex="1" parent="1">
          <mxGeometry x="727.5" y="440" width="260" height="40" as="geometry" />
        </mxCell>
        <mxCell id="tG2HjBdpa46FLRJhWVVo-59" value="" style="shape=actor;whiteSpace=wrap;html=1;" vertex="1" parent="1">
          <mxGeometry x="732.5" y="445" width="25" height="30" as="geometry" />
        </mxCell>
        <mxCell id="tG2HjBdpa46FLRJhWVVo-60" value="username" style="text;html=1;strokeColor=none;fillColor=none;align=center;verticalAlign=middle;whiteSpace=wrap;rounded=0;" vertex="1" parent="1">
          <mxGeometry x="767.5" y="450" width="60" height="30" as="geometry" />
        </mxCell>
        <mxCell id="tG2HjBdpa46FLRJhWVVo-61" value="Nav Menu" style="rounded=0;whiteSpace=wrap;html=1;" vertex="1" parent="1">
          <mxGeometry x="900" y="445" width="80" height="30" as="geometry" />
        </mxCell>
        <mxCell id="tG2HjBdpa46FLRJhWVVo-64" value="/community page" style="text;html=1;strokeColor=none;fillColor=none;align=center;verticalAlign=middle;whiteSpace=wrap;rounded=0;" vertex="1" parent="1">
          <mxGeometry x="727.5" y="410" width="102.5" height="30" as="geometry" />
        </mxCell>
        <mxCell id="tG2HjBdpa46FLRJhWVVo-65" value="" style="rounded=0;whiteSpace=wrap;html=1;" vertex="1" parent="1">
          <mxGeometry x="727.5" y="860" width="260" height="370" as="geometry" />
        </mxCell>
        <mxCell id="tG2HjBdpa46FLRJhWVVo-66" value="" style="rounded=0;whiteSpace=wrap;html=1;" vertex="1" parent="1">
          <mxGeometry x="727.5" y="860" width="260" height="40" as="geometry" />
        </mxCell>
        <mxCell id="tG2HjBdpa46FLRJhWVVo-67" value="" style="shape=actor;whiteSpace=wrap;html=1;" vertex="1" parent="1">
          <mxGeometry x="732.5" y="865" width="25" height="30" as="geometry" />
        </mxCell>
        <mxCell id="tG2HjBdpa46FLRJhWVVo-68" value="username" style="text;html=1;strokeColor=none;fillColor=none;align=center;verticalAlign=middle;whiteSpace=wrap;rounded=0;" vertex="1" parent="1">
          <mxGeometry x="767.5" y="870" width="60" height="30" as="geometry" />
        </mxCell>
        <mxCell id="tG2HjBdpa46FLRJhWVVo-69" value="Nav Menu" style="rounded=0;whiteSpace=wrap;html=1;" vertex="1" parent="1">
          <mxGeometry x="900" y="865" width="80" height="30" as="geometry" />
        </mxCell>
        <mxCell id="tG2HjBdpa46FLRJhWVVo-70" value="/history [page]" style="text;html=1;strokeColor=none;fillColor=none;align=center;verticalAlign=middle;whiteSpace=wrap;rounded=0;" vertex="1" parent="1">
          <mxGeometry x="727.5" y="830" width="102.5" height="30" as="geometry" />
        </mxCell>
        <mxCell id="tG2HjBdpa46FLRJhWVVo-71" value="" style="rounded=0;whiteSpace=wrap;html=1;" vertex="1" parent="1">
          <mxGeometry x="727.5" y="1280" width="260" height="370" as="geometry" />
        </mxCell>
        <mxCell id="tG2HjBdpa46FLRJhWVVo-72" value="" style="rounded=0;whiteSpace=wrap;html=1;" vertex="1" parent="1">
          <mxGeometry x="727.5" y="1280" width="260" height="40" as="geometry" />
        </mxCell>
        <mxCell id="tG2HjBdpa46FLRJhWVVo-73" value="" style="shape=actor;whiteSpace=wrap;html=1;" vertex="1" parent="1">
          <mxGeometry x="732.5" y="1285" width="25" height="30" as="geometry" />
        </mxCell>
        <mxCell id="tG2HjBdpa46FLRJhWVVo-74" value="username" style="text;html=1;strokeColor=none;fillColor=none;align=center;verticalAlign=middle;whiteSpace=wrap;rounded=0;" vertex="1" parent="1">
          <mxGeometry x="767.5" y="1290" width="60" height="30" as="geometry" />
        </mxCell>
        <mxCell id="tG2HjBdpa46FLRJhWVVo-75" value="Nav Menu" style="rounded=0;whiteSpace=wrap;html=1;" vertex="1" parent="1">
          <mxGeometry x="900" y="1285" width="80" height="30" as="geometry" />
        </mxCell>
        <mxCell id="tG2HjBdpa46FLRJhWVVo-76" value="/resources page" style="text;html=1;strokeColor=none;fillColor=none;align=center;verticalAlign=middle;whiteSpace=wrap;rounded=0;" vertex="1" parent="1">
          <mxGeometry x="727.5" y="1250" width="102.5" height="30" as="geometry" />
        </mxCell>
        <mxCell id="tG2HjBdpa46FLRJhWVVo-77" value="" style="rounded=0;whiteSpace=wrap;html=1;" vertex="1" parent="1">
          <mxGeometry x="727.5" y="1700" width="260" height="370" as="geometry" />
        </mxCell>
        <mxCell id="tG2HjBdpa46FLRJhWVVo-78" value="" style="rounded=0;whiteSpace=wrap;html=1;" vertex="1" parent="1">
          <mxGeometry x="727.5" y="1700" width="260" height="40" as="geometry" />
        </mxCell>
        <mxCell id="tG2HjBdpa46FLRJhWVVo-79" value="" style="shape=actor;whiteSpace=wrap;html=1;" vertex="1" parent="1">
          <mxGeometry x="732.5" y="1705" width="25" height="30" as="geometry" />
        </mxCell>
        <mxCell id="tG2HjBdpa46FLRJhWVVo-80" value="username" style="text;html=1;strokeColor=none;fillColor=none;align=center;verticalAlign=middle;whiteSpace=wrap;rounded=0;" vertex="1" parent="1">
          <mxGeometry x="767.5" y="1710" width="60" height="30" as="geometry" />
        </mxCell>
        <mxCell id="tG2HjBdpa46FLRJhWVVo-81" value="Nav Menu" style="rounded=0;whiteSpace=wrap;html=1;" vertex="1" parent="1">
          <mxGeometry x="900" y="1705" width="80" height="30" as="geometry" />
        </mxCell>
        <mxCell id="tG2HjBdpa46FLRJhWVVo-82" value="/setting/admin page" style="text;html=1;strokeColor=none;fillColor=none;align=center;verticalAlign=middle;whiteSpace=wrap;rounded=0;" vertex="1" parent="1">
          <mxGeometry x="727.5" y="1670" width="122.5" height="30" as="geometry" />
        </mxCell>
        <mxCell id="tG2HjBdpa46FLRJhWVVo-90" value="" style="endArrow=classic;html=1;rounded=0;entryX=0;entryY=0;entryDx=0;entryDy=0;exitX=0.998;exitY=0.311;exitDx=0;exitDy=0;exitPerimeter=0;" edge="1" parent="1" source="eyCGUmQNgfzPm_etx0tx-25" target="tG2HjBdpa46FLRJhWVVo-58">
          <mxGeometry width="50" height="50" relative="1" as="geometry">
            <mxPoint x="580" y="438" as="sourcePoint" />
            <mxPoint x="720" y="445" as="targetPoint" />
          </mxGeometry>
        </mxCell>
        <mxCell id="tG2HjBdpa46FLRJhWVVo-94" value="" style="rounded=0;whiteSpace=wrap;html=1;" vertex="1" parent="1">
          <mxGeometry x="167.5" y="220" width="80" height="30" as="geometry" />
        </mxCell>
        <mxCell id="tG2HjBdpa46FLRJhWVVo-91" value="" style="endArrow=classic;html=1;rounded=0;entryX=0;entryY=1;entryDx=0;entryDy=0;exitX=1.005;exitY=0.315;exitDx=0;exitDy=0;exitPerimeter=0;" edge="1" parent="1" source="eyCGUmQNgfzPm_etx0tx-26" target="tG2HjBdpa46FLRJhWVVo-70">
          <mxGeometry width="50" height="50" relative="1" as="geometry">
            <mxPoint x="580" y="480" as="sourcePoint" />
            <mxPoint x="630" y="430" as="targetPoint" />
            <Array as="points">
              <mxPoint x="700" y="470" />
              <mxPoint x="700" y="860" />
            </Array>
          </mxGeometry>
        </mxCell>
        <mxCell id="tG2HjBdpa46FLRJhWVVo-92" value="" style="endArrow=classic;html=1;rounded=0;entryX=0;entryY=1;entryDx=0;entryDy=0;exitX=1.003;exitY=0.325;exitDx=0;exitDy=0;exitPerimeter=0;" edge="1" parent="1" source="tG2HjBdpa46FLRJhWVVo-26" target="tG2HjBdpa46FLRJhWVVo-76">
          <mxGeometry width="50" height="50" relative="1" as="geometry">
            <mxPoint x="580" y="505" as="sourcePoint" />
            <mxPoint x="630" y="455" as="targetPoint" />
            <Array as="points">
              <mxPoint x="670" y="500" />
              <mxPoint x="670" y="1280" />
            </Array>
          </mxGeometry>
        </mxCell>
        <mxCell id="tG2HjBdpa46FLRJhWVVo-93" value="" style="endArrow=classic;html=1;rounded=0;entryX=0;entryY=1;entryDx=0;entryDy=0;exitX=1.005;exitY=0.31;exitDx=0;exitDy=0;exitPerimeter=0;" edge="1" parent="1" source="tG2HjBdpa46FLRJhWVVo-27" target="tG2HjBdpa46FLRJhWVVo-82">
          <mxGeometry width="50" height="50" relative="1" as="geometry">
            <mxPoint x="575.05" y="530.01" as="sourcePoint" />
            <mxPoint x="727.5" y="1699.9999999999998" as="targetPoint" />
            <Array as="points">
              <mxPoint x="640" y="530" />
              <mxPoint x="640" y="1700" />
            </Array>
          </mxGeometry>
        </mxCell>
        <mxCell id="tG2HjBdpa46FLRJhWVVo-3" value="Login" style="text;html=1;strokeColor=none;fillColor=none;align=center;verticalAlign=middle;whiteSpace=wrap;rounded=0;" vertex="1" parent="1">
          <mxGeometry x="180" y="220" width="60" height="30" as="geometry" />
        </mxCell>
        <mxCell id="JKxnxF4VFKg8o7jbgC08-4" value="User Entry" style="text;html=1;strokeColor=none;fillColor=none;align=center;verticalAlign=middle;whiteSpace=wrap;rounded=0;" vertex="1" parent="1">
          <mxGeometry x="6" y="185" width="60" height="30" as="geometry" />
        </mxCell>
        <mxCell id="lX6PHqwGhS0pLgjCv0tl-2" value="fitered results [modal]" style="text;html=1;strokeColor=none;fillColor=none;align=center;verticalAlign=middle;whiteSpace=wrap;rounded=0;" vertex="1" parent="1">
          <mxGeometry x="80" y="774" width="130" height="30" as="geometry" />
        </mxCell>
        <mxCell id="lX6PHqwGhS0pLgjCv0tl-3" value="" style="group" connectable="0" vertex="1" parent="1">
          <mxGeometry x="294.9999999999998" y="802" width="60" height="30" as="geometry" />
        </mxCell>
        <mxCell id="lX6PHqwGhS0pLgjCv0tl-4" value="" style="rounded=0;whiteSpace=wrap;html=1;movable=0;resizable=0;rotatable=0;deletable=0;editable=0;locked=1;connectable=0;" vertex="1" parent="lX6PHqwGhS0pLgjCv0tl-3">
          <mxGeometry x="20" y="5.6299999999999955" width="20" height="16.25" as="geometry" />
        </mxCell>
        <mxCell id="lX6PHqwGhS0pLgjCv0tl-5" value="X" style="text;html=1;strokeColor=none;fillColor=none;align=center;verticalAlign=middle;whiteSpace=wrap;rounded=0;movable=1;resizable=1;rotatable=1;deletable=1;editable=1;locked=0;connectable=1;" vertex="1" parent="lX6PHqwGhS0pLgjCv0tl-3">
          <mxGeometry width="60" height="30" as="geometry" />
        </mxCell>
        <mxCell id="lX6PHqwGhS0pLgjCv0tl-6" value="" style="endArrow=classic;html=1;rounded=0;exitX=0.16;exitY=0.55;exitDx=0;exitDy=0;exitPerimeter=0;entryX=0;entryY=1;entryDx=0;entryDy=0;" edge="1" parent="1" source="tG2HjBdpa46FLRJhWVVo-12" target="lX6PHqwGhS0pLgjCv0tl-2">
          <mxGeometry width="50" height="50" relative="1" as="geometry">
            <mxPoint x="415" y="815" as="sourcePoint" />
            <mxPoint x="465" y="765" as="targetPoint" />
            <Array as="points">
              <mxPoint x="70" y="494" />
              <mxPoint x="70" y="804" />
            </Array>
          </mxGeometry>
        </mxCell>
        <mxCell id="lX6PHqwGhS0pLgjCv0tl-8" value="" style="endArrow=classic;html=1;rounded=0;exitX=0;exitY=0.5;exitDx=0;exitDy=0;entryX=0;entryY=0;entryDx=0;entryDy=0;" edge="1" parent="1" source="tG2HjBdpa46FLRJhWVVo-15" target="lX6PHqwGhS0pLgjCv0tl-1">
          <mxGeometry width="50" height="50" relative="1" as="geometry">
            <mxPoint x="170" y="560" as="sourcePoint" />
            <mxPoint x="220" y="510" as="targetPoint" />
            <Array as="points">
              <mxPoint x="60" y="555" />
              <mxPoint x="60" y="1160" />
              <mxPoint x="60" y="1500" />
            </Array>
          </mxGeometry>
        </mxCell>
        <mxCell id="lX6PHqwGhS0pLgjCv0tl-9" value="" style="rounded=0;whiteSpace=wrap;html=1;" vertex="1" parent="1">
          <mxGeometry x="80" y="1140.5" width="261" height="279" as="geometry" />
        </mxCell>
        <mxCell id="lX6PHqwGhS0pLgjCv0tl-10" value="" style="group" connectable="0" vertex="1" parent="1">
          <mxGeometry x="294.9999999999998" y="1144.5" width="60" height="30" as="geometry" />
        </mxCell>
        <mxCell id="lX6PHqwGhS0pLgjCv0tl-11" value="" style="rounded=0;whiteSpace=wrap;html=1;movable=0;resizable=0;rotatable=0;deletable=0;editable=0;locked=1;connectable=0;" vertex="1" parent="lX6PHqwGhS0pLgjCv0tl-10">
          <mxGeometry x="20" y="5.6299999999999955" width="20" height="16.25" as="geometry" />
        </mxCell>
        <mxCell id="lX6PHqwGhS0pLgjCv0tl-12" value="X" style="text;html=1;strokeColor=none;fillColor=none;align=center;verticalAlign=middle;whiteSpace=wrap;rounded=0;movable=1;resizable=1;rotatable=1;deletable=1;editable=1;locked=0;connectable=1;" vertex="1" parent="lX6PHqwGhS0pLgjCv0tl-10">
          <mxGeometry width="60" height="30" as="geometry" />
        </mxCell>
        <mxCell id="lX6PHqwGhS0pLgjCv0tl-13" value="journal entry view [modal]" style="text;html=1;strokeColor=none;fillColor=none;align=center;verticalAlign=middle;whiteSpace=wrap;rounded=0;" vertex="1" parent="1">
          <mxGeometry x="80" y="1110.5" width="110" height="30" as="geometry" />
        </mxCell>
        <mxCell id="lX6PHqwGhS0pLgjCv0tl-14" value="" style="endArrow=classic;html=1;rounded=0;entryX=1;entryY=0;entryDx=0;entryDy=0;" edge="1" parent="1" target="lX6PHqwGhS0pLgjCv0tl-9">
          <mxGeometry width="50" height="50" relative="1" as="geometry">
            <mxPoint x="230" y="630" as="sourcePoint" />
            <mxPoint x="280" y="580" as="targetPoint" />
            <Array as="points">
              <mxPoint x="370" y="630" />
              <mxPoint x="370" y="1140" />
            </Array>
          </mxGeometry>
        </mxCell>
        <mxCell id="lX6PHqwGhS0pLgjCv0tl-15" value="&lt;span&gt;&lt;font style=&quot;font-size: 19px;&quot;&gt;UPDATED 11/13/2023&lt;br&gt;Gratitude++ Design Flow [Mobile First Web Application]&lt;/font&gt;&lt;/span&gt;" style="text;html=1;strokeColor=none;fillColor=none;align=center;verticalAlign=middle;whiteSpace=wrap;rounded=0;fontStyle=0" vertex="1" parent="1">
          <mxGeometry x="705" y="30" width="290" height="30" as="geometry" />
        </mxCell>
        <mxCell id="lX6PHqwGhS0pLgjCv0tl-17" value="Search Term Displayed" style="text;html=1;strokeColor=none;fillColor=none;align=center;verticalAlign=middle;whiteSpace=wrap;rounded=0;" vertex="1" parent="1">
          <mxGeometry x="117.5" y="840" width="152.5" height="30" as="geometry" />
        </mxCell>
        <mxCell id="lX6PHqwGhS0pLgjCv0tl-19" value="" style="html=1;shadow=0;dashed=0;align=center;verticalAlign=middle;shape=mxgraph.arrows2.arrow;dy=0;dx=30;notch=30;direction=west;" vertex="1" parent="1">
          <mxGeometry x="107.5" y="1050" width="20" height="10" as="geometry" />
        </mxCell>
        <mxCell id="lX6PHqwGhS0pLgjCv0tl-20" value="" style="html=1;shadow=0;dashed=0;align=center;verticalAlign=middle;shape=mxgraph.arrows2.arrow;dy=0;dx=30;notch=30;" vertex="1" parent="1">
          <mxGeometry x="290" y="1050" width="20" height="10" as="geometry" />
        </mxCell>
        <mxCell id="lX6PHqwGhS0pLgjCv0tl-21" value="" style="whiteSpace=wrap;html=1;aspect=fixed;" vertex="1" parent="1">
          <mxGeometry x="197.5" y="1045" width="20" height="20" as="geometry" />
        </mxCell>
        <mxCell id="lX6PHqwGhS0pLgjCv0tl-22" value="#" style="text;html=1;strokeColor=none;fillColor=none;align=center;verticalAlign=middle;whiteSpace=wrap;rounded=0;" vertex="1" parent="1">
          <mxGeometry x="177.5" y="1040" width="60" height="30" as="geometry" />
        </mxCell>
        <mxCell id="lX6PHqwGhS0pLgjCv0tl-28" value="" style="group" connectable="0" vertex="1" parent="1">
          <mxGeometry x="118.75" y="621" width="180.25" height="100" as="geometry" />
        </mxCell>
        <mxCell id="tG2HjBdpa46FLRJhWVVo-21" value="* date&amp;nbsp; :&amp;nbsp; &amp;nbsp;headline" style="text;html=1;strokeColor=none;fillColor=none;align=left;verticalAlign=middle;whiteSpace=wrap;rounded=0;" vertex="1" parent="lX6PHqwGhS0pLgjCv0tl-28">
          <mxGeometry x="0.25" width="180" height="20" as="geometry" />
        </mxCell>
        <mxCell id="tG2HjBdpa46FLRJhWVVo-22" value="* date&amp;nbsp; :&amp;nbsp; &amp;nbsp;headline" style="text;html=1;strokeColor=none;fillColor=none;align=left;verticalAlign=middle;whiteSpace=wrap;rounded=0;" vertex="1" parent="lX6PHqwGhS0pLgjCv0tl-28">
          <mxGeometry y="20" width="180" height="20" as="geometry" />
        </mxCell>
        <mxCell id="tG2HjBdpa46FLRJhWVVo-23" value="* date&amp;nbsp; :&amp;nbsp; &amp;nbsp;headline" style="text;html=1;strokeColor=none;fillColor=none;align=left;verticalAlign=middle;whiteSpace=wrap;rounded=0;" vertex="1" parent="lX6PHqwGhS0pLgjCv0tl-28">
          <mxGeometry y="80" width="180" height="20" as="geometry" />
        </mxCell>
        <mxCell id="tG2HjBdpa46FLRJhWVVo-24" value="* date&amp;nbsp; :&amp;nbsp; &amp;nbsp;headline" style="text;html=1;strokeColor=none;fillColor=none;align=left;verticalAlign=middle;whiteSpace=wrap;rounded=0;" vertex="1" parent="lX6PHqwGhS0pLgjCv0tl-28">
          <mxGeometry y="40" width="180" height="20" as="geometry" />
        </mxCell>
        <mxCell id="tG2HjBdpa46FLRJhWVVo-25" value="* date&amp;nbsp; :&amp;nbsp; &amp;nbsp;headline" style="text;html=1;strokeColor=none;fillColor=none;align=left;verticalAlign=middle;whiteSpace=wrap;rounded=0;" vertex="1" parent="lX6PHqwGhS0pLgjCv0tl-28">
          <mxGeometry y="60" width="180" height="20" as="geometry" />
        </mxCell>
        <mxCell id="lX6PHqwGhS0pLgjCv0tl-29" value="" style="group" connectable="0" vertex="1" parent="1">
          <mxGeometry x="120" y="890" width="180.25" height="100" as="geometry" />
        </mxCell>
        <mxCell id="lX6PHqwGhS0pLgjCv0tl-30" value="* date&amp;nbsp; :&amp;nbsp; &amp;nbsp;username : headline&amp;nbsp;&amp;nbsp;" style="text;html=1;strokeColor=none;fillColor=none;align=left;verticalAlign=middle;whiteSpace=wrap;rounded=0;" vertex="1" parent="lX6PHqwGhS0pLgjCv0tl-29">
          <mxGeometry x="0.25" width="180" height="20" as="geometry" />
        </mxCell>
        <mxCell id="lX6PHqwGhS0pLgjCv0tl-31" value="* date&amp;nbsp; :&amp;nbsp; &amp;nbsp;username : headline" style="text;html=1;strokeColor=none;fillColor=none;align=left;verticalAlign=middle;whiteSpace=wrap;rounded=0;" vertex="1" parent="lX6PHqwGhS0pLgjCv0tl-29">
          <mxGeometry y="20" width="180" height="20" as="geometry" />
        </mxCell>
        <mxCell id="lX6PHqwGhS0pLgjCv0tl-32" value="* date&amp;nbsp; :&amp;nbsp; &amp;nbsp;username : headline" style="text;html=1;strokeColor=none;fillColor=none;align=left;verticalAlign=middle;whiteSpace=wrap;rounded=0;" vertex="1" parent="lX6PHqwGhS0pLgjCv0tl-29">
          <mxGeometry y="80" width="180" height="20" as="geometry" />
        </mxCell>
        <mxCell id="lX6PHqwGhS0pLgjCv0tl-33" value="* date&amp;nbsp; :&amp;nbsp; &amp;nbsp;username : headline" style="text;html=1;strokeColor=none;fillColor=none;align=left;verticalAlign=middle;whiteSpace=wrap;rounded=0;" vertex="1" parent="lX6PHqwGhS0pLgjCv0tl-29">
          <mxGeometry y="40" width="180" height="20" as="geometry" />
        </mxCell>
        <mxCell id="lX6PHqwGhS0pLgjCv0tl-34" value="* date&amp;nbsp; :&amp;nbsp; &amp;nbsp;username : headline" style="text;html=1;strokeColor=none;fillColor=none;align=left;verticalAlign=middle;whiteSpace=wrap;rounded=0;" vertex="1" parent="lX6PHqwGhS0pLgjCv0tl-29">
          <mxGeometry y="60" width="180" height="20" as="geometry" />
        </mxCell>
        <mxCell id="lX6PHqwGhS0pLgjCv0tl-35" value="" style="endArrow=classic;html=1;rounded=0;" edge="1" parent="lX6PHqwGhS0pLgjCv0tl-29">
          <mxGeometry width="50" height="50" relative="1" as="geometry">
            <mxPoint x="170" y="10" as="sourcePoint" />
            <mxPoint x="220" y="250" as="targetPoint" />
            <Array as="points">
              <mxPoint x="250" y="10" />
              <mxPoint x="250" y="250" />
            </Array>
          </mxGeometry>
        </mxCell>
        <mxCell id="lX6PHqwGhS0pLgjCv0tl-36" value="date&lt;br&gt;&lt;br&gt;username&lt;br&gt;&lt;br&gt;headline&lt;br&gt;&lt;br&gt;content content content content content content content content&lt;br&gt;content content content content&amp;nbsp;&lt;br&gt;content content content content&amp;nbsp;" style="text;html=1;strokeColor=none;fillColor=none;align=left;verticalAlign=middle;whiteSpace=wrap;rounded=0;" vertex="1" parent="1">
          <mxGeometry x="121" y="1260" width="180" height="40" as="geometry" />
        </mxCell>
        <mxCell id="lX6PHqwGhS0pLgjCv0tl-37" value="[generated content prompt]" style="text;html=1;strokeColor=none;fillColor=none;align=center;verticalAlign=middle;whiteSpace=wrap;rounded=0;" vertex="1" parent="1">
          <mxGeometry x="115" y="1540" width="155" height="30" as="geometry" />
        </mxCell>
        <mxCell id="lX6PHqwGhS0pLgjCv0tl-38" value="Enter Headline" style="text;html=1;strokeColor=none;fillColor=none;align=center;verticalAlign=middle;whiteSpace=wrap;rounded=0;" vertex="1" parent="1">
          <mxGeometry x="111" y="1580" width="109" height="30" as="geometry" />
        </mxCell>
        <mxCell id="lX6PHqwGhS0pLgjCv0tl-39" value="Enter Content" style="text;html=1;strokeColor=none;fillColor=none;align=center;verticalAlign=middle;whiteSpace=wrap;rounded=0;" vertex="1" parent="1">
          <mxGeometry x="121" y="1624.5" width="80" height="30" as="geometry" />
        </mxCell>
        <mxCell id="lX6PHqwGhS0pLgjCv0tl-41" value="" style="rounded=0;whiteSpace=wrap;html=1;" vertex="1" parent="1">
          <mxGeometry x="121" y="1610" width="180" height="15" as="geometry" />
        </mxCell>
        <mxCell id="lX6PHqwGhS0pLgjCv0tl-42" value="" style="rounded=0;whiteSpace=wrap;html=1;" vertex="1" parent="1">
          <mxGeometry x="120" y="1654.5" width="180" height="65.5" as="geometry" />
        </mxCell>
        <mxCell id="lX6PHqwGhS0pLgjCv0tl-43" value="" style="rounded=0;whiteSpace=wrap;html=1;" vertex="1" parent="1">
          <mxGeometry x="283.75" y="1740" width="17.5" height="15" as="geometry" />
        </mxCell>
        <mxCell id="lX6PHqwGhS0pLgjCv0tl-44" value="public?" style="text;html=1;strokeColor=none;fillColor=none;align=center;verticalAlign=middle;whiteSpace=wrap;rounded=0;" vertex="1" parent="1">
          <mxGeometry x="230" y="1732.5" width="60" height="30" as="geometry" />
        </mxCell>
        <mxCell id="lX6PHqwGhS0pLgjCv0tl-45" value="" style="rounded=0;whiteSpace=wrap;html=1;" vertex="1" parent="1">
          <mxGeometry x="121" y="1735" width="52.5" height="25" as="geometry" />
        </mxCell>
        <mxCell id="lX6PHqwGhS0pLgjCv0tl-46" value="submit" style="text;html=1;strokeColor=none;fillColor=none;align=center;verticalAlign=middle;whiteSpace=wrap;rounded=0;" vertex="1" parent="1">
          <mxGeometry x="115" y="1732.5" width="60" height="30" as="geometry" />
        </mxCell>
        <mxCell id="lX6PHqwGhS0pLgjCv0tl-48" value="" style="verticalLabelPosition=bottom;verticalAlign=top;html=1;shape=mxgraph.basic.tick" vertex="1" parent="1">
          <mxGeometry x="290" y="1732.5" width="20" height="20" as="geometry" />
        </mxCell>
        <mxCell id="lX6PHqwGhS0pLgjCv0tl-49" value="" style="rounded=0;whiteSpace=wrap;html=1;" vertex="1" parent="1">
          <mxGeometry x="755.01" y="985" width="212.5" height="20" as="geometry" />
        </mxCell>
        <mxCell id="lX6PHqwGhS0pLgjCv0tl-50" value="search bar" style="text;html=1;strokeColor=none;fillColor=none;align=center;verticalAlign=middle;whiteSpace=wrap;rounded=0;" vertex="1" parent="1">
          <mxGeometry x="750.63" y="980" width="221.25" height="30" as="geometry" />
        </mxCell>
        <mxCell id="lX6PHqwGhS0pLgjCv0tl-58" value="" style="group" connectable="0" vertex="1" parent="1">
          <mxGeometry x="760" y="1190" width="202.5" height="30" as="geometry" />
        </mxCell>
        <mxCell id="lX6PHqwGhS0pLgjCv0tl-59" value="" style="html=1;shadow=0;dashed=0;align=center;verticalAlign=middle;shape=mxgraph.arrows2.arrow;dy=0;dx=30;notch=30;direction=west;" vertex="1" parent="lX6PHqwGhS0pLgjCv0tl-58">
          <mxGeometry y="10" width="20" height="10" as="geometry" />
        </mxCell>
        <mxCell id="lX6PHqwGhS0pLgjCv0tl-60" value="" style="html=1;shadow=0;dashed=0;align=center;verticalAlign=middle;shape=mxgraph.arrows2.arrow;dy=0;dx=30;notch=30;" vertex="1" parent="lX6PHqwGhS0pLgjCv0tl-58">
          <mxGeometry x="182.5" y="10" width="20" height="10" as="geometry" />
        </mxCell>
        <mxCell id="lX6PHqwGhS0pLgjCv0tl-61" value="" style="whiteSpace=wrap;html=1;aspect=fixed;" vertex="1" parent="lX6PHqwGhS0pLgjCv0tl-58">
          <mxGeometry x="90" y="5" width="20" height="20" as="geometry" />
        </mxCell>
        <mxCell id="lX6PHqwGhS0pLgjCv0tl-62" value="#" style="text;html=1;strokeColor=none;fillColor=none;align=center;verticalAlign=middle;whiteSpace=wrap;rounded=0;" vertex="1" parent="lX6PHqwGhS0pLgjCv0tl-58">
          <mxGeometry x="70" width="60" height="30" as="geometry" />
        </mxCell>
        <mxCell id="lX6PHqwGhS0pLgjCv0tl-64" value="History Label" style="text;html=1;strokeColor=none;fillColor=none;align=center;verticalAlign=middle;whiteSpace=wrap;rounded=0;" vertex="1" parent="1">
          <mxGeometry x="800" y="920" width="114.99" height="30" as="geometry" />
        </mxCell>
        <mxCell id="lX6PHqwGhS0pLgjCv0tl-65" value="Community Label" style="text;html=1;strokeColor=none;fillColor=none;align=center;verticalAlign=middle;whiteSpace=wrap;rounded=0;" vertex="1" parent="1">
          <mxGeometry x="800" y="500" width="114.99" height="30" as="geometry" />
        </mxCell>
        <mxCell id="lX6PHqwGhS0pLgjCv0tl-66" value="Resources Label" style="text;html=1;strokeColor=none;fillColor=none;align=center;verticalAlign=middle;whiteSpace=wrap;rounded=0;" vertex="1" parent="1">
          <mxGeometry x="800" y="1340" width="114.99" height="30" as="geometry" />
        </mxCell>
        <mxCell id="lX6PHqwGhS0pLgjCv0tl-67" value="Settings Label" style="text;html=1;strokeColor=none;fillColor=none;align=center;verticalAlign=middle;whiteSpace=wrap;rounded=0;" vertex="1" parent="1">
          <mxGeometry x="800" y="1760" width="114.99" height="30" as="geometry" />
        </mxCell>
        <mxCell id="lX6PHqwGhS0pLgjCv0tl-68" value="" style="group" connectable="0" vertex="1" parent="1">
          <mxGeometry x="760" y="770" width="202.5" height="60" as="geometry" />
        </mxCell>
        <mxCell id="lX6PHqwGhS0pLgjCv0tl-69" value="" style="html=1;shadow=0;dashed=0;align=center;verticalAlign=middle;shape=mxgraph.arrows2.arrow;dy=0;dx=30;notch=30;direction=west;" vertex="1" parent="lX6PHqwGhS0pLgjCv0tl-68">
          <mxGeometry y="10" width="20" height="10" as="geometry" />
        </mxCell>
        <mxCell id="lX6PHqwGhS0pLgjCv0tl-70" value="" style="html=1;shadow=0;dashed=0;align=center;verticalAlign=middle;shape=mxgraph.arrows2.arrow;dy=0;dx=30;notch=30;" vertex="1" parent="lX6PHqwGhS0pLgjCv0tl-68">
          <mxGeometry x="182.5" y="10" width="20" height="10" as="geometry" />
        </mxCell>
        <mxCell id="lX6PHqwGhS0pLgjCv0tl-71" value="" style="whiteSpace=wrap;html=1;aspect=fixed;" vertex="1" parent="lX6PHqwGhS0pLgjCv0tl-68">
          <mxGeometry x="90" y="5" width="20" height="20" as="geometry" />
        </mxCell>
        <mxCell id="lX6PHqwGhS0pLgjCv0tl-72" value="#" style="text;html=1;strokeColor=none;fillColor=none;align=center;verticalAlign=middle;whiteSpace=wrap;rounded=0;" vertex="1" parent="lX6PHqwGhS0pLgjCv0tl-68">
          <mxGeometry x="70" width="60" height="30" as="geometry" />
        </mxCell>
        <mxCell id="lX6PHqwGhS0pLgjCv0tl-85" value="" style="rounded=0;whiteSpace=wrap;html=1;" vertex="1" parent="lX6PHqwGhS0pLgjCv0tl-68">
          <mxGeometry x="-5.6200000000000045" y="-215" width="212.5" height="20" as="geometry" />
        </mxCell>
        <mxCell id="lX6PHqwGhS0pLgjCv0tl-86" value="search bar" style="text;html=1;strokeColor=none;fillColor=none;align=center;verticalAlign=middle;whiteSpace=wrap;rounded=0;" vertex="1" parent="lX6PHqwGhS0pLgjCv0tl-68">
          <mxGeometry x="-10" y="-220" width="221.25" height="30" as="geometry" />
        </mxCell>
        <mxCell id="lX6PHqwGhS0pLgjCv0tl-87" value="" style="group" connectable="0" vertex="1" parent="lX6PHqwGhS0pLgjCv0tl-68">
          <mxGeometry x="9.370000000000005" y="-160" width="180.25" height="100" as="geometry" />
        </mxCell>
        <mxCell id="lX6PHqwGhS0pLgjCv0tl-88" value="* date&amp;nbsp; :&amp;nbsp; &amp;nbsp;username : headline&amp;nbsp;&amp;nbsp;" style="text;html=1;strokeColor=none;fillColor=none;align=left;verticalAlign=middle;whiteSpace=wrap;rounded=0;" vertex="1" parent="lX6PHqwGhS0pLgjCv0tl-87">
          <mxGeometry x="0.25" width="180" height="20" as="geometry" />
        </mxCell>
        <mxCell id="lX6PHqwGhS0pLgjCv0tl-89" value="* date&amp;nbsp; :&amp;nbsp; &amp;nbsp;username : headline" style="text;html=1;strokeColor=none;fillColor=none;align=left;verticalAlign=middle;whiteSpace=wrap;rounded=0;" vertex="1" parent="lX6PHqwGhS0pLgjCv0tl-87">
          <mxGeometry y="20" width="180" height="20" as="geometry" />
        </mxCell>
        <mxCell id="lX6PHqwGhS0pLgjCv0tl-90" value="* date&amp;nbsp; :&amp;nbsp; &amp;nbsp;username : headline" style="text;html=1;strokeColor=none;fillColor=none;align=left;verticalAlign=middle;whiteSpace=wrap;rounded=0;" vertex="1" parent="lX6PHqwGhS0pLgjCv0tl-87">
          <mxGeometry y="80" width="180" height="20" as="geometry" />
        </mxCell>
        <mxCell id="lX6PHqwGhS0pLgjCv0tl-91" value="* date&amp;nbsp; :&amp;nbsp; &amp;nbsp;username : headline" style="text;html=1;strokeColor=none;fillColor=none;align=left;verticalAlign=middle;whiteSpace=wrap;rounded=0;" vertex="1" parent="lX6PHqwGhS0pLgjCv0tl-87">
          <mxGeometry y="40" width="180" height="20" as="geometry" />
        </mxCell>
        <mxCell id="lX6PHqwGhS0pLgjCv0tl-92" value="* date&amp;nbsp; :&amp;nbsp; &amp;nbsp;username : headline" style="text;html=1;strokeColor=none;fillColor=none;align=left;verticalAlign=middle;whiteSpace=wrap;rounded=0;" vertex="1" parent="lX6PHqwGhS0pLgjCv0tl-87">
          <mxGeometry y="60" width="180" height="20" as="geometry" />
        </mxCell>
        <mxCell id="lX6PHqwGhS0pLgjCv0tl-93" value="external link to resources&lt;br&gt;&lt;br&gt;external link to resources&lt;br&gt;&lt;br&gt;external link to resources&lt;br&gt;&lt;br&gt;external link to resources&lt;br&gt;&lt;br&gt;external link to resources&lt;br&gt;&lt;br&gt;external link to resources&lt;br&gt;&lt;br&gt;" style="text;html=1;strokeColor=none;fillColor=none;align=center;verticalAlign=middle;whiteSpace=wrap;rounded=0;" vertex="1" parent="1">
          <mxGeometry x="772.5" y="1480" width="170" height="30" as="geometry" />
        </mxCell>
        <mxCell id="lX6PHqwGhS0pLgjCv0tl-94" value="" style="rounded=0;whiteSpace=wrap;html=1;" vertex="1" parent="1">
          <mxGeometry x="753.75" y="1800" width="50" height="50" as="geometry" />
        </mxCell>
        <mxCell id="lX6PHqwGhS0pLgjCv0tl-95" value="Username" style="text;html=1;strokeColor=none;fillColor=none;align=center;verticalAlign=middle;whiteSpace=wrap;rounded=0;" vertex="1" parent="1">
          <mxGeometry x="830" y="1800" width="60" height="30" as="geometry" />
        </mxCell>
        <mxCell id="lX6PHqwGhS0pLgjCv0tl-97" value="" style="shape=actor;whiteSpace=wrap;html=1;" vertex="1" parent="1">
          <mxGeometry x="766.25" y="1810" width="25" height="30" as="geometry" />
        </mxCell>
        <mxCell id="lX6PHqwGhS0pLgjCv0tl-102" value="" style="group" connectable="0" vertex="1" parent="1">
          <mxGeometry x="748.75" y="1860" width="60" height="30" as="geometry" />
        </mxCell>
        <mxCell id="lX6PHqwGhS0pLgjCv0tl-101" value="" style="rounded=0;whiteSpace=wrap;html=1;" vertex="1" parent="lX6PHqwGhS0pLgjCv0tl-102">
          <mxGeometry y="2.5" width="60" height="25" as="geometry" />
        </mxCell>
        <mxCell id="lX6PHqwGhS0pLgjCv0tl-98" value="change?" style="text;html=1;strokeColor=none;fillColor=none;align=center;verticalAlign=middle;whiteSpace=wrap;rounded=0;" vertex="1" parent="lX6PHqwGhS0pLgjCv0tl-102">
          <mxGeometry width="60" height="30" as="geometry" />
        </mxCell>
        <mxCell id="lX6PHqwGhS0pLgjCv0tl-103" value="" style="endArrow=classic;html=1;rounded=0;entryX=1;entryY=1;entryDx=0;entryDy=0;" edge="1" parent="1" target="tG2HjBdpa46FLRJhWVVo-46">
          <mxGeometry width="50" height="50" relative="1" as="geometry">
            <mxPoint x="810" y="1880" as="sourcePoint" />
            <mxPoint x="740" y="360" as="targetPoint" />
            <Array as="points">
              <mxPoint x="1010" y="1880" />
              <mxPoint x="1010" y="1090" />
              <mxPoint x="1010" y="340" />
            </Array>
          </mxGeometry>
        </mxCell>
        <mxCell id="lX6PHqwGhS0pLgjCv0tl-104" value="" style="endArrow=none;html=1;rounded=0;entryX=1.01;entryY=0.624;entryDx=0;entryDy=0;entryPerimeter=0;" edge="1" parent="1">
          <mxGeometry width="50" height="50" relative="1" as="geometry">
            <mxPoint x="728.7" y="1930" as="sourcePoint" />
            <mxPoint x="991.3" y="1930.88" as="targetPoint" />
          </mxGeometry>
        </mxCell>
        <mxCell id="lX6PHqwGhS0pLgjCv0tl-105" value="username&amp;nbsp;&lt;br&gt;&lt;br&gt;username&amp;nbsp;&lt;br&gt;&lt;br&gt;username&amp;nbsp;" style="text;html=1;strokeColor=none;fillColor=none;align=center;verticalAlign=middle;whiteSpace=wrap;rounded=0;" vertex="1" parent="1">
          <mxGeometry x="760" y="1980" width="60" height="30" as="geometry" />
        </mxCell>
        <mxCell id="lX6PHqwGhS0pLgjCv0tl-106" value="[admin only]" style="text;html=1;strokeColor=none;fillColor=none;align=center;verticalAlign=middle;whiteSpace=wrap;rounded=0;" vertex="1" parent="1">
          <mxGeometry x="818.12" y="1920" width="78.74" height="30" as="geometry" />
        </mxCell>
        <mxCell id="lX6PHqwGhS0pLgjCv0tl-107" value="" style="rounded=0;whiteSpace=wrap;html=1;" vertex="1" parent="1">
          <mxGeometry x="940" y="1960" width="40" height="20" as="geometry" />
        </mxCell>
        <mxCell id="lX6PHqwGhS0pLgjCv0tl-108" value="" style="rounded=0;whiteSpace=wrap;html=1;" vertex="1" parent="1">
          <mxGeometry x="940" y="1985" width="40" height="20" as="geometry" />
        </mxCell>
        <mxCell id="lX6PHqwGhS0pLgjCv0tl-109" value="" style="rounded=0;whiteSpace=wrap;html=1;" vertex="1" parent="1">
          <mxGeometry x="940" y="2010" width="40" height="20" as="geometry" />
        </mxCell>
        <mxCell id="lX6PHqwGhS0pLgjCv0tl-110" value="delete?" style="rounded=0;whiteSpace=wrap;html=1;" vertex="1" parent="1">
          <mxGeometry x="825.25" y="1900" width="59.75" height="20" as="geometry" />
        </mxCell>
        <mxCell id="lX6PHqwGhS0pLgjCv0tl-114" value="" style="group" connectable="0" vertex="1" parent="1">
          <mxGeometry x="760" y="2040" width="202.5" height="30" as="geometry" />
        </mxCell>
        <mxCell id="lX6PHqwGhS0pLgjCv0tl-115" value="" style="html=1;shadow=0;dashed=0;align=center;verticalAlign=middle;shape=mxgraph.arrows2.arrow;dy=0;dx=30;notch=30;direction=west;" vertex="1" parent="lX6PHqwGhS0pLgjCv0tl-114">
          <mxGeometry y="10" width="20" height="10" as="geometry" />
        </mxCell>
        <mxCell id="lX6PHqwGhS0pLgjCv0tl-116" value="" style="html=1;shadow=0;dashed=0;align=center;verticalAlign=middle;shape=mxgraph.arrows2.arrow;dy=0;dx=30;notch=30;" vertex="1" parent="lX6PHqwGhS0pLgjCv0tl-114">
          <mxGeometry x="182.5" y="10" width="20" height="10" as="geometry" />
        </mxCell>
        <mxCell id="lX6PHqwGhS0pLgjCv0tl-117" value="" style="whiteSpace=wrap;html=1;aspect=fixed;" vertex="1" parent="lX6PHqwGhS0pLgjCv0tl-114">
          <mxGeometry x="90" y="5" width="20" height="20" as="geometry" />
        </mxCell>
        <mxCell id="lX6PHqwGhS0pLgjCv0tl-118" value="#" style="text;html=1;strokeColor=none;fillColor=none;align=center;verticalAlign=middle;whiteSpace=wrap;rounded=0;" vertex="1" parent="lX6PHqwGhS0pLgjCv0tl-114">
          <mxGeometry x="70" width="60" height="30" as="geometry" />
        </mxCell>
        <mxCell id="lX6PHqwGhS0pLgjCv0tl-119" value="delete" style="text;html=1;strokeColor=none;fillColor=none;align=center;verticalAlign=middle;whiteSpace=wrap;rounded=0;" vertex="1" parent="1">
          <mxGeometry x="930" y="1955" width="60" height="30" as="geometry" />
        </mxCell>
        <mxCell id="lX6PHqwGhS0pLgjCv0tl-120" value="delete" style="text;html=1;strokeColor=none;fillColor=none;align=center;verticalAlign=middle;whiteSpace=wrap;rounded=0;" vertex="1" parent="1">
          <mxGeometry x="930" y="1980" width="60" height="30" as="geometry" />
        </mxCell>
        <mxCell id="lX6PHqwGhS0pLgjCv0tl-121" value="delete" style="text;html=1;strokeColor=none;fillColor=none;align=center;verticalAlign=middle;whiteSpace=wrap;rounded=0;" vertex="1" parent="1">
          <mxGeometry x="931.5" y="2005" width="60" height="30" as="geometry" />
        </mxCell>
        <mxCell id="lX6PHqwGhS0pLgjCv0tl-127" value="message dialogues [modals]" style="text;html=1;strokeColor=none;fillColor=none;align=center;verticalAlign=middle;whiteSpace=wrap;rounded=0;" vertex="1" parent="1">
          <mxGeometry x="406.5" y="889" width="155" height="30" as="geometry" />
        </mxCell>
        <mxCell id="lX6PHqwGhS0pLgjCv0tl-128" value="" style="rounded=0;whiteSpace=wrap;html=1;" vertex="1" parent="1">
          <mxGeometry x="408" y="915" width="137" height="81.5" as="geometry" />
        </mxCell>
        <mxCell id="lX6PHqwGhS0pLgjCv0tl-130" value="message/confirmation" style="text;html=1;strokeColor=none;fillColor=none;align=center;verticalAlign=middle;whiteSpace=wrap;rounded=0;" vertex="1" parent="1">
          <mxGeometry x="446.5" y="921.5" width="60" height="30" as="geometry" />
        </mxCell>
        <mxCell id="lX6PHqwGhS0pLgjCv0tl-131" value="" style="rounded=0;whiteSpace=wrap;html=1;" vertex="1" parent="1">
          <mxGeometry x="416.5" y="966.5" width="47.5" height="20" as="geometry" />
        </mxCell>
        <mxCell id="lX6PHqwGhS0pLgjCv0tl-132" value="" style="rounded=0;whiteSpace=wrap;html=1;" vertex="1" parent="1">
          <mxGeometry x="484" y="966.5" width="47.5" height="20" as="geometry" />
        </mxCell>
        <mxCell id="lX6PHqwGhS0pLgjCv0tl-133" value="Y" style="text;html=1;strokeColor=none;fillColor=none;align=center;verticalAlign=middle;whiteSpace=wrap;rounded=0;" vertex="1" parent="1">
          <mxGeometry x="410.25" y="961.5" width="60" height="30" as="geometry" />
        </mxCell>
        <mxCell id="lX6PHqwGhS0pLgjCv0tl-134" value="N" style="text;html=1;strokeColor=none;fillColor=none;align=center;verticalAlign=middle;whiteSpace=wrap;rounded=0;" vertex="1" parent="1">
          <mxGeometry x="477.75" y="961.5" width="60" height="30" as="geometry" />
        </mxCell>
        <mxCell id="lX6PHqwGhS0pLgjCv0tl-139" value="" style="shape=note;whiteSpace=wrap;html=1;backgroundOutline=1;darkOpacity=0.05;" vertex="1" parent="1">
          <mxGeometry x="406.5" y="705" width="198.5" height="170" as="geometry" />
        </mxCell>
        <mxCell id="lX6PHqwGhS0pLgjCv0tl-140" value="NOTE:&lt;br&gt;message dialogue will be created for ALL submit, delete, or relevant window closes if data has not been saved&lt;br&gt;&lt;br&gt;(similar to below)" style="text;html=1;strokeColor=none;fillColor=none;align=left;verticalAlign=middle;whiteSpace=wrap;rounded=0;" vertex="1" parent="1">
          <mxGeometry x="431.5" y="765" width="140" height="30" as="geometry" />
        </mxCell>
        <mxCell id="pV_NR-MdOzRREpPYXYWR-14" value="" style="group" connectable="0" vertex="1" parent="1">
          <mxGeometry x="760" y="1040" width="180.25" height="100" as="geometry" />
        </mxCell>
        <mxCell id="pV_NR-MdOzRREpPYXYWR-15" value="* date&amp;nbsp; :&amp;nbsp; &amp;nbsp;headline" style="text;html=1;strokeColor=none;fillColor=none;align=left;verticalAlign=middle;whiteSpace=wrap;rounded=0;" vertex="1" parent="pV_NR-MdOzRREpPYXYWR-14">
          <mxGeometry x="0.25" width="180" height="20" as="geometry" />
        </mxCell>
        <mxCell id="pV_NR-MdOzRREpPYXYWR-16" value="* date&amp;nbsp; :&amp;nbsp; &amp;nbsp;headline" style="text;html=1;strokeColor=none;fillColor=none;align=left;verticalAlign=middle;whiteSpace=wrap;rounded=0;" vertex="1" parent="pV_NR-MdOzRREpPYXYWR-14">
          <mxGeometry y="20" width="180" height="20" as="geometry" />
        </mxCell>
        <mxCell id="pV_NR-MdOzRREpPYXYWR-17" value="* date&amp;nbsp; :&amp;nbsp; &amp;nbsp;headline" style="text;html=1;strokeColor=none;fillColor=none;align=left;verticalAlign=middle;whiteSpace=wrap;rounded=0;" vertex="1" parent="pV_NR-MdOzRREpPYXYWR-14">
          <mxGeometry y="80" width="180" height="20" as="geometry" />
        </mxCell>
        <mxCell id="pV_NR-MdOzRREpPYXYWR-18" value="* date&amp;nbsp; :&amp;nbsp; &amp;nbsp;headline" style="text;html=1;strokeColor=none;fillColor=none;align=left;verticalAlign=middle;whiteSpace=wrap;rounded=0;" vertex="1" parent="pV_NR-MdOzRREpPYXYWR-14">
          <mxGeometry y="40" width="180" height="20" as="geometry" />
        </mxCell>
        <mxCell id="pV_NR-MdOzRREpPYXYWR-19" value="* date&amp;nbsp; :&amp;nbsp; &amp;nbsp;headline" style="text;html=1;strokeColor=none;fillColor=none;align=left;verticalAlign=middle;whiteSpace=wrap;rounded=0;" vertex="1" parent="pV_NR-MdOzRREpPYXYWR-14">
          <mxGeometry y="60" width="180" height="20" as="geometry" />
        </mxCell>
        <mxCell id="pV_NR-MdOzRREpPYXYWR-20" value="" style="shape=note;whiteSpace=wrap;html=1;backgroundOutline=1;darkOpacity=0.05;" vertex="1" parent="1">
          <mxGeometry x="1020" y="1390" width="140" height="165" as="geometry" />
        </mxCell>
        <mxCell id="pV_NR-MdOzRREpPYXYWR-27" value="&#xa;&lt;span style=&quot;color: rgb(0, 0, 0); font-family: Helvetica; font-size: 12px; font-style: normal; font-variant-ligatures: normal; font-variant-caps: normal; font-weight: 400; letter-spacing: normal; orphans: 2; text-align: center; text-indent: 0px; text-transform: none; widows: 2; word-spacing: 0px; -webkit-text-stroke-width: 0px; background-color: rgb(255, 255, 255); text-decoration-thickness: initial; text-decoration-style: initial; text-decoration-color: initial; float: none; display: inline !important;&quot;&gt;Clickable behavior same as other pages&lt;/span&gt;&#xa;&#xa;" style="shape=note;whiteSpace=wrap;html=1;backgroundOutline=1;darkOpacity=0.05;" vertex="1" parent="1">
          <mxGeometry x="1020" y="990" width="140" height="165" as="geometry" />
        </mxCell>
        <mxCell id="pV_NR-MdOzRREpPYXYWR-28" value="" style="shape=note;whiteSpace=wrap;html=1;backgroundOutline=1;darkOpacity=0.05;" vertex="1" parent="1">
          <mxGeometry x="1020" y="1790" width="140" height="165" as="geometry" />
        </mxCell>
        <mxCell id="bv42e3qAvE2baz5jJyaH-2" value="URLS will navigate outside of web application" style="text;html=1;strokeColor=none;fillColor=none;align=center;verticalAlign=middle;whiteSpace=wrap;rounded=0;" vertex="1" parent="1">
          <mxGeometry x="1032" y="1447" width="122" height="30" as="geometry" />
        </mxCell>
        <mxCell id="bv42e3qAvE2baz5jJyaH-3" value="Admin Section will only be visible to Admin Account" style="text;html=1;strokeColor=none;fillColor=none;align=center;verticalAlign=middle;whiteSpace=wrap;rounded=0;" vertex="1" parent="1">
          <mxGeometry x="1060" y="1858" width="60" height="30" as="geometry" />
        </mxCell>
        <mxCell id="EUH_Q8Mlgn8AiMi2eoxl-2" value="delete?" style="rounded=0;whiteSpace=wrap;html=1;" vertex="1" parent="1">
          <mxGeometry x="235.25" y="1374" width="59.75" height="20" as="geometry" />
        </mxCell>
        <mxCell id="EUH_Q8Mlgn8AiMi2eoxl-3" value="" style="rounded=0;whiteSpace=wrap;html=1;fillColor=none;" vertex="1" parent="1">
          <mxGeometry x="383" y="1230" width="120" height="60" as="geometry" />
        </mxCell>
        <mxCell id="EUH_Q8Mlgn8AiMi2eoxl-4" value="" style="rounded=0;whiteSpace=wrap;html=1;" vertex="1" parent="1">
          <mxGeometry x="362" y="1180.5" width="261" height="279" as="geometry" />
        </mxCell>
        <mxCell id="EUH_Q8Mlgn8AiMi2eoxl-5" value="" style="group" connectable="0" vertex="1" parent="1">
          <mxGeometry x="576.9999999999998" y="1184.5" width="60" height="30" as="geometry" />
        </mxCell>
        <mxCell id="EUH_Q8Mlgn8AiMi2eoxl-6" value="" style="rounded=0;whiteSpace=wrap;html=1;movable=0;resizable=0;rotatable=0;deletable=0;editable=0;locked=1;connectable=0;" vertex="1" parent="EUH_Q8Mlgn8AiMi2eoxl-5">
          <mxGeometry x="20" y="5.6299999999999955" width="20" height="16.25" as="geometry" />
        </mxCell>
        <mxCell id="EUH_Q8Mlgn8AiMi2eoxl-7" value="X" style="text;html=1;strokeColor=none;fillColor=none;align=center;verticalAlign=middle;whiteSpace=wrap;rounded=0;movable=1;resizable=1;rotatable=1;deletable=1;editable=1;locked=0;connectable=1;" vertex="1" parent="EUH_Q8Mlgn8AiMi2eoxl-5">
          <mxGeometry width="60" height="30" as="geometry" />
        </mxCell>
        <mxCell id="EUH_Q8Mlgn8AiMi2eoxl-8" value="community entry view [modal]" style="text;html=1;strokeColor=none;fillColor=none;align=center;verticalAlign=middle;whiteSpace=wrap;rounded=0;" vertex="1" parent="1">
          <mxGeometry x="362" y="1150.5" width="110" height="30" as="geometry" />
        </mxCell>
        <mxCell id="EUH_Q8Mlgn8AiMi2eoxl-9" value="date&lt;br&gt;&lt;br&gt;username&lt;br&gt;&lt;br&gt;headline&lt;br&gt;&lt;br&gt;content content content content content content content content&lt;br&gt;content content content content&amp;nbsp;&lt;br&gt;content content content content&amp;nbsp;" style="text;html=1;strokeColor=none;fillColor=none;align=left;verticalAlign=middle;whiteSpace=wrap;rounded=0;" vertex="1" parent="1">
          <mxGeometry x="403" y="1300" width="180" height="40" as="geometry" />
        </mxCell>
        <mxCell id="EUH_Q8Mlgn8AiMi2eoxl-10" value="flag?" style="rounded=0;whiteSpace=wrap;html=1;" vertex="1" parent="1">
          <mxGeometry x="517.25" y="1414" width="59.75" height="20" as="geometry" />
        </mxCell>
        <mxCell id="EUH_Q8Mlgn8AiMi2eoxl-11" value="" style="shape=note;whiteSpace=wrap;html=1;backgroundOutline=1;darkOpacity=0.05;" vertex="1" parent="1">
          <mxGeometry x="416.5" y="1449" width="140" height="165" as="geometry" />
        </mxCell>
        <mxCell id="EUH_Q8Mlgn8AiMi2eoxl-12" value="View for community Journal Entries&lt;br&gt;Clickable behavior same as other pages" style="text;html=1;strokeColor=none;fillColor=none;align=center;verticalAlign=middle;whiteSpace=wrap;rounded=0;" vertex="1" parent="1">
          <mxGeometry x="419.5" y="1505" width="128" height="30" as="geometry" />
        </mxCell>
      </root>
    </mxGraphModel>
  </diagram>
</mxfile>
